<?xml version="1.0" encoding="utf-8"?>
<!-- Generator: Adobe Illustrator 27.5.0, SVG Export Plug-In . SVG Version: 6.00 Build 0)  -->
<svg version="1.1" id="Layer_1" xmlns="http://www.w3.org/2000/svg" xmlns:xlink="http://www.w3.org/1999/xlink" x="0px" y="0px"
	 viewBox="0 0 3873 3873" style="enable-background:new 0 0 3873 3873;" xml:space="preserve">
<title>1470 - Gauge</title>
<path d="M3410.6,3273.6c-33.4-0.1-60.5-27.2-60.4-60.7c0-10.6,2.8-21,8.1-30.1c144-249.6,219.6-532.7,219.4-820.8
	c0-905.1-736.4-1641.5-1641.5-1641.5S294.7,1456.9,294.7,2362c-0.1,288.1,75.6,571.2,219.7,820.7c17.9,28.2,9.6,65.6-18.6,83.5
	c-28.2,17.9-65.6,9.6-83.5-18.6c-0.9-1.4-1.8-2.9-2.6-4.4c-486.6-843.1-197.6-1921,645.5-2407.5s1921-197.6,2407.5,645.5
	c314.7,545.2,314.7,1216.9,0,1762.1C3452,3261.9,3432.1,3273.5,3410.6,3273.6z"/>
<path d="M2981.2,3025.8c-33.4,0-60.5-27.2-60.5-60.6c0-11,3-21.7,8.6-31.1c107.6-179.3,164.5-384.5,164.5-593.7
	c0-638-519.1-1157.4-1157.4-1157.4S779.1,1702.1,779.1,2340.4c-0.1,209.1,56.6,414.2,164.1,593.5c18.4,27.9,10.6,65.4-17.3,83.8
	c-27.9,18.4-65.4,10.6-83.8-17.3c-0.9-1.4-1.7-2.7-2.5-4.2c-118.8-198.1-181.6-424.8-181.5-655.8
	c0-704.8,573.3-1278.4,1278.4-1278.4s1278.4,573.3,1278.4,1278.4c0,231-62.7,457.7-181.5,655.8
	C3022.4,3014.6,3002.6,3025.8,2981.2,3025.8z"/>
<path d="M1936.5,1183.4c-33.4,0-60.5-27.1-60.5-60.5v-463c0-33.4,27.1-60.5,60.5-60.5s60.5,27.1,60.5,60.5v462.9
	C1997,1156.3,1969.9,1183.4,1936.5,1183.4z"/>
<path d="M1318.6,1352.2c-21.6,0-41.6-11.5-52.4-30.3l-233.1-403.7c-16.7-29-6.8-66,22.2-82.7c29-16.7,66-6.8,82.7,22.2l233.1,403.7
	c16.7,28.9,6.8,66-22.2,82.7C1339.6,1349.4,1329.2,1352.2,1318.6,1352.2z"/>
<path d="M873,1808.5c-10.6,0-21.1-2.8-30.3-8.2l-410.5-237c-29-16.7-38.9-53.7-22.2-82.7s53.7-38.9,82.7-22.2l410.6,237.1
	c29,16.7,38.9,53.7,22.2,82.7C914.7,1797,894.7,1808.5,873,1808.5L873,1808.5z"/>
<path d="M719.1,2422.4H234.5c-33.4,0-60.5-27.1-60.5-60.5s27.1-60.5,60.5-60.5h484.7c33.4,0,60.5,27.1,60.5,60.5
	S752.6,2422.4,719.1,2422.4z"/>
<path d="M462.3,3273.6c-33.4,0-60.5-27.1-60.5-60.5c0-21.6,11.5-41.6,30.3-52.4l429.4-247.9c28.5-17.5,65.8-8.5,83.2,19.9
	c17.5,28.5,8.5,65.8-20,83.2c-0.9,0.6-1.8,1.1-2.8,1.6l-429.5,248C483.3,3270.8,472.9,3273.6,462.3,3273.6z"/>
<path d="M3410.6,3273.6c-10.6,0-21.1-2.8-30.3-8.1l-429.4-248c-29.4-15.9-40.3-52.7-24.3-82.1c15.9-29.4,52.7-40.3,82.1-24.3
	c0.9,0.5,1.9,1,2.8,1.6l429.4,247.9c29,16.7,38.9,53.7,22.2,82.7C3452.3,3262,3432.3,3273.6,3410.6,3273.6L3410.6,3273.6z"/>
<path d="M3638.5,2422.4h-484.1c-33.4,0-60.5-27.1-60.5-60.5s27.1-60.5,60.5-60.5h484.1c33.4,0,60.5,27.1,60.5,60.5
	S3671.9,2422.4,3638.5,2422.4z"/>
<path d="M3000,1808.5c-33.4,0-60.5-27.1-60.5-60.5c0-21.6,11.5-41.6,30.3-52.4l410.6-237.1c29-16.7,66-6.8,82.7,22.2
	s6.8,66-22.2,82.7l-410.7,237C3021,1805.7,3010.6,1808.5,3000,1808.5z"/>
<path d="M2554.4,1352.1c-10.6,0-21.1-2.8-30.3-8.1c-28.9-16.7-38.9-53.7-22.2-82.7l0,0L2735,857.7c16.7-29,53.7-38.9,82.7-22.2
	s38.9,53.7,22.2,82.7l-233.1,403.7C2596,1340.6,2576,1352.1,2554.4,1352.1z"/>
<path d="M1936.5,3078.7c-138.2,0.1-250.2-111.9-250.3-250.1c0-11,0.7-21.9,2.1-32.8l188.1-1434.1c4.4-33.1,34.8-56.4,68-52
	c27.1,3.6,48.4,24.9,52,52l188.1,1434.4c17.9,137-78.6,262.6-215.6,280.5C1958.2,3078,1947.4,3078.7,1936.5,3078.7z M1936.5,1834.9
	l-128.1,977c-9.1,70.8,40.9,135.5,111.6,144.6c70.8,9.1,135.5-40.9,144.6-111.6c1.4-11,1.4-22.1,0-33L1936.5,1834.9z"/>
</svg>
